<?xml version="1.0" encoding="UTF-8"?>
<!DOCTYPE svg PUBLIC "-//W3C//DTD SVG 1.1//EN" "http://www.w3.org/Graphics/SVG/1.1/DTD/svg11.dtd">
<!-- Creator: CorelDRAW X7 -->
<svg xmlns="http://www.w3.org/2000/svg" xml:space="preserve" width="148.046mm" height="92.157mm" version="1.1" style="shape-rendering:geometricPrecision; text-rendering:geometricPrecision; image-rendering:optimizeQuality; fill-rule:evenodd; clip-rule:evenodd"
viewBox="0 0 75318 46885"
 xmlns:xlink="http://www.w3.org/1999/xlink">
 <defs>
  <style type="text/css">
   <![CDATA[
    .str2 {stroke:#201E1E;stroke-width:508.748}
    .str6 {stroke:#201E1E;stroke-width:381.561}
    .str5 {stroke:#201E1E;stroke-width:254.374}
    .str15 {stroke:#373435;stroke-width:127.187}
    .str4 {stroke:#201E1E;stroke-width:127.187}
    .str1 {stroke:#A9ABAE;stroke-width:101.75}
    .str14 {stroke:#848688;stroke-width:101.75}
    .str9 {stroke:#4B4B4D;stroke-width:101.75}
    .str3 {stroke:#373435;stroke-width:101.75}
    .str11 {stroke:#201E1E;stroke-width:101.75}
    .str0 {stroke:#FEFEFE;stroke-width:38.614}
    .str8 {stroke:#96989A;stroke-width:38.7666}
    .str7 {stroke:#727376;stroke-width:38.7666}
    .str10 {stroke:#373435;stroke-width:38.7666}
    .str12 {stroke:black;stroke-width:38.7666}
    .str13 {stroke:#201E1E;stroke-width:38.7666}
    .fil18 {fill:none}
    .fil23 {fill:#848688}
    .fil4 {fill:#727376}
    .fil19 {fill:#373435}
    .fil20 {fill:#201E1E}
    .fil0 {fill:#010101}
    .fil1 {fill:#1A1A1A}
    .fil22 {fill:#F06277}
    .fil21 {fill:#F48884}
    .fil2 {fill:#F4F4F4}
    .fil3 {fill:#FEFEFE}
    .fil14 {fill:#373435;fill-rule:nonzero}
    .fil17 {fill:#FFFBD6;fill-rule:nonzero}
    .fil9 {fill:#FFF212;fill-rule:nonzero}
    .fil10 {fill:#F7ADAF;fill-rule:nonzero}
    .fil13 {fill:#CE8F64;fill-rule:nonzero}
    .fil11 {fill:#FAA954;fill-rule:nonzero}
    .fil5 {fill:#ED3237;fill-rule:nonzero}
    .fil16 {fill:#8B9E93;fill-rule:nonzero}
    .fil12 {fill:#C75EA3;fill-rule:nonzero}
    .fil6 {fill:#91D8F7;fill-rule:nonzero}
    .fil15 {fill:#A8CF45;fill-rule:nonzero}
    .fil7 {fill:#00A859;fill-rule:nonzero}
    .fil8 {fill:#3E4095;fill-rule:nonzero}
   ]]>
  </style>
 </defs>
 <g id="Capa_x0020_1">
  <metadata id="CorelCorpID_0Corel-Layer"/>
  <g id="_2173305109088">
   <path class="fil0" d="M45900 12326c968,-165 1694,-242 2534,204 586,319 1185,943 1427,1643 -306,-127 -688,-382 -1006,-560 -370,-217 -675,-510 -1121,-370 -318,586 115,688 586,968 216,115 1019,522 1095,688 -1847,140 -3349,-1044 -3515,-2573l0 0zm12647 90c63,-153 878,-574 1082,-688 497,-280 930,-370 688,-1006 -713,-179 -1388,662 -2216,955 866,-2127 3273,-2331 4063,-1847 -370,1732 -1771,2713 -3617,2585l0 1zm-2853 -4025c662,-522 1579,-624 1286,-1197 -280,-548 -1337,369 -1706,497 611,-1350 1821,-1414 2992,-1274 -229,1083 -1209,2165 -2572,1974zm-12889 -6495c1108,-484 2764,-242 3668,280 726,420 1643,1439 1949,2483 -981,-305 -2687,-1897 -3044,-1299 -369,624 1656,1350 2623,2013 -904,471 -2865,-191 -3502,-663 -790,-573 -1732,-2101 -1694,-2814l0 0zm10545 14799c-305,-230 -496,-650 -802,-905 -1643,-1400 -1350,-407 -1847,-1693 -484,-1223 -1222,-2267 -2712,-2611 -815,-191 -2420,-128 -2930,395 -165,777 714,2267 1045,2636 586,611 1363,1095 2509,1172 1426,101 1681,-573 2954,305 5074,3640 -11104,2968 -9360,2968 11983,-583 8885,325 14149,-4980 1618,-1630 1159,-599 3120,-777 624,-64 1236,-267 1669,-535 828,-522 1426,-1375 1770,-2547 255,-904 102,-930 -739,-1133 -1834,-433 -3527,178 -4470,1732 -331,547 -382,929 -637,1490 -89,203 -1617,1235 -2534,2853 -153,242 -255,522 -420,725 -102,-1324 -179,-2458 -459,-3731 -356,-1630 -815,-1719 637,-2827 433,-344 942,12 1745,-26 2420,-115 3311,-2687 3056,-3209 -203,-421 -3604,-1541 -4852,2127 -127,369 -369,420 -662,675 -268,242 -382,420 -662,675l-64 -77c-77,-114 -13,0 -77,-127 -687,-1350 -1184,-2153 -2305,-3235 -535,-510 -917,-382 -1108,-1083 -879,-3094 -3324,-4763 -6788,-3833 -509,140 -764,165 -611,815 178,777 471,1516 853,2114 2242,3477 5693,1809 6304,1987 446,127 1350,1108 1605,1388 1668,1885 2776,5973 2624,9272l-1 0z"/>
   <path class="fil0" d="M50496 31780c-630,-154 -1447,213 -1862,719 -307,1059 2349,-185 3270,-169 -921,890 -2026,552 -3039,1289 -1443,1075 -584,1228 -1858,1474 -2149,399 -2978,2410 -2441,2794 937,644 568,-1474 2487,-1812 -153,507 -644,1674 -629,2226 15,430 414,722 767,399 215,-184 261,-783 353,-1105 384,-1428 1106,-3055 2365,-3438 -93,1212 122,2318 828,3285 231,322 645,460 860,92 230,-415 -368,-1013 -568,-1581 -230,-630 -322,-1428 -77,-2042 614,-276 952,-338 1474,-737 553,-430 491,-860 860,-1443 122,292 138,752 184,1105 92,660 123,476 460,814 983,967 62,1781 -844,2226 -307,153 -645,245 -537,675 199,814 1320,-46 1627,-169 184,1213 -2252,2579 -1929,3239 200,322 1898,-752 2144,-1074 460,-568 860,-1474 737,-2257 -138,-844 -323,-261 61,-1044 476,-982 -107,-1704 -568,-2210 -307,-338 -261,-629 -337,-1213 -62,-414 -185,-936 -108,-1366 230,61 353,445 507,645 230,337 368,337 337,798 -138,2011 1520,1873 1766,3162 169,967 -584,1704 -261,2119 583,721 982,-415 1120,-937 261,-952 108,-1366 -199,-2164 414,46 921,184 1274,322 445,200 368,537 583,952 184,353 415,675 614,936 537,691 231,138 292,1075 46,629 476,1980 1090,1919 921,-77 -46,-1459 -200,-1904 338,77 1873,1244 2211,430 276,-706 -1167,-860 -1950,-1443 -322,-246 -890,-814 -1074,-1228 614,46 982,-15 1473,-246 1981,-905 937,-1581 446,-1351 -430,200 -645,476 -1213,599 -737,169 -1735,-599 -2548,-829 -522,-138 -983,-199 -1566,-123 -568,77 -737,-245 -891,-828 446,138 1536,475 1720,-154 245,-875 -937,-384 -1428,-829 108,-245 537,-768 737,-1044 1087,-1004 -1338,247 -1520,369 -153,-292 -353,-584 -522,-921 -1139,-751 4600,463 -2313,704 -692,24 -1194,1320 -2165,1294z"/>
   <path class="fil1" d="M14144 14856c913,-2556 1278,-2373 365,-5841 2373,913 4381,4015 2373,5475 -730,548 -1643,366 -2738,366zm-2920 0c365,-1096 913,-1460 913,-2921 182,-1460 -183,-2007 -548,-3102l730 0c913,1460 913,3467 183,5110 -365,730 -365,913 -1277,913l-1 0zm2373 -3286c0,-1277 -365,-1825 -548,-2737 730,0 730,182 1096,912 182,548 182,1096 182,1825 183,1460 -365,2190 -912,3286l-730 0c365,-1278 912,-1643 912,-3286l0 0zm-2920 2920c-365,548 -365,366 -1277,366 -2190,0 -1826,182 -2556,912 -365,365 -912,365 -1277,365 0,730 0,548 730,548 1095,0 2555,182 3103,-183 365,-365 1095,-912 1277,-1095 365,0 1825,0 2190,0 -183,183 -365,547 -548,547 -730,366 -730,-182 -1095,366 183,365 0,365 548,365l2555 0c1095,0 1460,-913 2190,-1095 547,182 730,730 1277,912 730,365 5475,365 6205,183 183,-1643 -3285,-1278 -4562,-1460 -548,-183 -730,-365 -1095,-548 -730,-1095 730,-1095 -548,-3650 -730,-1095 -1825,-2190 -3285,-2555 -2190,-730 -3285,-183 -4927,547l0 730 1277 -547c913,913 1095,3468 -183,5293l1 -1z"/>
   <path class="fil1" d="M8487 10110c-730,-365 -365,-912 182,-1460 548,548 183,1095 -182,1460zm-2738 0c-730,-365 -547,-730 -365,-1460 730,365 913,913 365,1460zm3103 548c730,-1095 912,-1277 0,-2738 -548,183 -913,548 -1095,1095 -548,730 -183,1096 182,1460 -547,1095 -730,1643 -730,3103 0,547 183,730 -365,730 -182,-2008 365,-2008 -730,-3833 913,-1095 183,-2007 -730,-2555l-547 548c0,182 -183,547 -183,730 0,1095 548,1095 548,1460 0,1095 -548,730 730,3285 365,365 365,912 1095,912 730,183 730,-365 1095,-912 547,-1095 1095,-1825 730,-3285l0 0z"/>
   <path class="fil2" d="M11589 8833c365,1095 730,1642 548,3102 0,1460 -548,1825 -913,2921 913,0 913,-183 1278,-913 729,-1643 729,-3650 -183,-5110l-730 0 0 0z"/>
   <path class="fil2" d="M13597 11570c0,1643 -548,2008 -913,3286l730 0c548,-1096 1095,-1826 913,-3286 0,-729 0,-1277 -183,-1825 -365,-730 -365,-912 -1095,-912 183,912 548,1460 548,2737l0 0z"/>
   <path class="fil3 str0" d="M5932 12118c0,0 182,0 182,182 0,183 -182,183 -182,183 -183,0 -365,0 -365,-183 0,-182 182,-182 365,-182z"/>
   <path class="fil3 str0" d="M8304 12118c183,0 183,0 183,182 0,183 0,183 -183,183 -182,0 -182,0 -182,-183 0,-182 0,-182 182,-182z"/>
   <rect class="fil4 str1" x="51" y="17501" width="75216" height="13725"/>
   <path class="fil5" d="M5119 20922l2466 0c489,0 853,20 1092,60 241,42 455,126 645,254 189,129 347,300 473,514 127,214 190,455 190,721 0,287 -78,552 -233,792 -155,241 -366,420 -631,541 374,110 661,297 864,561 201,264 301,574 301,932 0,281 -64,554 -195,819 -131,266 -309,478 -535,637 -226,158 -504,256 -836,293 -206,22 -707,36 -1501,42l-2100 0 0 -6166zm1249 1025l0 1421 815 0c484,0 785,-8 903,-22 212,-24 380,-98 502,-220 122,-122 183,-281 183,-479 0,-191 -53,-344 -158,-464 -105,-119 -261,-190 -468,-215 -124,-14 -478,-21 -1062,-21l-715 0zm0 2445l0 1654 1154 0c448,0 733,-13 854,-38 185,-34 336,-116 452,-246 116,-132 175,-306 175,-526 0,-186 -44,-343 -135,-472 -89,-129 -219,-224 -389,-283 -169,-59 -538,-89 -1105,-89l-1006 0z"/>
   <polygon id="1" class="fil6" points="11295,27088 11295,20922 12544,20922 12544,27088 "/>
   <path id="2" class="fil7" d="M13473 24042c0,-628 94,-1157 282,-1584 139,-315 332,-597 574,-847 243,-250 508,-435 797,-557 385,-162 828,-244 1330,-244 910,0 1637,283 2183,847 546,565 819,1350 819,2356 0,998 -272,1779 -813,2341 -541,564 -1266,846 -2171,846 -917,0 -1648,-280 -2189,-841 -541,-560 -812,-1332 -812,-2317zm1283 -41c0,698 162,1228 485,1590 323,360 733,541 1230,541 498,0 905,-180 1225,-537 319,-359 478,-896 478,-1612 0,-707 -155,-1235 -466,-1583 -310,-349 -722,-522 -1237,-522 -514,0 -929,176 -1243,528 -314,353 -472,884 -472,1595z"/>
   <path id="3" class="fil8" d="M20429 20922l2271 0c512,0 903,39 1171,118 360,106 670,295 927,568 258,271 454,604 589,999 133,393 201,880 201,1457 0,508 -64,944 -190,1312 -154,449 -373,812 -659,1089 -215,211 -506,374 -872,492 -275,88 -640,131 -1100,131l-2338 0 0 -6166zm1249 1042l0 4082 926 0c345,0 595,-20 749,-59 202,-50 369,-136 501,-257 133,-121 241,-319 324,-594 85,-276 126,-653 126,-1130 0,-476 -41,-841 -126,-1096 -83,-256 -201,-454 -352,-597 -150,-142 -341,-240 -574,-290 -172,-39 -512,-59 -1017,-59l-557 0z"/>
   <polygon id="4" class="fil9" points="26605,27088 26605,20922 27854,20922 27854,27088 "/>
   <polygon id="5" class="fil10" points="30618,27088 28412,20922 29761,20922 31327,25486 32830,20922 34156,20922 31963,27088 "/>
   <polygon id="6" class="fil11" points="34785,27088 34785,20922 39349,20922 39349,21964 36033,21964 36033,23333 39116,23333 39116,24375 36033,24375 36033,26046 39469,26046 39469,27088 "/>
   <path id="7" class="fil12" d="M40528 27088l0 -6166 2623 0c658,0 1138,56 1436,166 300,111 539,308 718,590 179,284 270,607 270,972 0,464 -135,845 -406,1147 -272,301 -676,491 -1216,570 268,156 489,328 663,516 175,188 411,523 706,1002l752 1203 -1488 0 -893 -1346c-320,-478 -539,-780 -659,-905 -117,-123 -242,-209 -374,-255 -134,-46 -343,-69 -630,-69l-253 0 0 2575 -1249 0zm1249 -3557l922 0c597,0 968,-26 1118,-76 147,-50 265,-138 348,-261 85,-124 127,-279 127,-464 0,-208 -56,-374 -167,-503 -110,-128 -267,-209 -468,-242 -102,-14 -404,-21 -908,-21l-972 0 0 1567z"/>
   <path id="8" class="fil13" d="M46420 25090l1214 -121c74,407 220,704 442,894 223,191 523,286 900,286 399,0 701,-85 903,-254 203,-169 304,-367 304,-594 0,-147 -43,-270 -127,-373 -85,-102 -234,-191 -447,-266 -145,-51 -475,-140 -991,-270 -665,-166 -1131,-370 -1400,-613 -377,-340 -565,-754 -565,-1244 0,-314 89,-610 265,-884 178,-274 434,-482 768,-626 334,-143 736,-215 1210,-215 771,0 1352,171 1741,514 390,343 594,799 614,1372l-1248 43c-54,-319 -167,-547 -341,-686 -173,-139 -434,-210 -782,-210 -359,0 -640,75 -842,224 -131,96 -197,224 -197,385 0,146 62,271 185,374 157,134 537,272 1141,415 604,142 1051,292 1339,444 290,153 517,361 681,627 163,265 245,593 245,982 0,353 -98,684 -294,993 -197,308 -474,538 -833,687 -358,151 -806,226 -1342,226 -779,0 -1377,-180 -1795,-540 -418,-359 -666,-883 -748,-1570z"/>
   <polygon id="9" class="fil14" points="52448,27088 52448,20922 53697,20922 53697,27088 "/>
   <path id="10" class="fil15" d="M54884 20922l2270 0c513,0 903,39 1172,118 360,106 670,295 927,568 258,271 453,604 588,999 134,393 201,880 201,1457 0,508 -63,944 -189,1312 -154,449 -373,812 -659,1089 -215,211 -507,374 -873,492 -274,88 -640,131 -1099,131l-2338 0 0 -6166zm1249 1042l0 4082 925 0c346,0 596,-20 749,-59 203,-50 369,-136 501,-257 134,-121 242,-319 325,-594 84,-276 126,-653 126,-1130 0,-476 -42,-841 -126,-1096 -83,-256 -201,-454 -352,-597 -151,-142 -341,-240 -574,-290 -172,-39 -512,-59 -1018,-59l-556 0z"/>
   <path id="11" class="fil16" d="M66657 27088l-1345 0 -532 -1404 -2473 0 -512 1404 -1321 0 2394 -6166 1319 0 2470 6166zm-2282 -2446l-857 -2282 -832 2282 1689 0z"/>
   <path id="12" class="fil17" d="M67322 20922l2270 0c513,0 903,39 1172,118 360,106 670,295 927,568 258,271 453,604 588,999 134,393 201,880 201,1457 0,508 -63,944 -189,1312 -154,449 -374,812 -659,1089 -215,211 -507,374 -873,492 -274,88 -640,131 -1099,131l-2338 0 0 -6166zm1248 1042l0 4082 926 0c346,0 596,-20 749,-59 203,-50 369,-136 501,-257 134,-121 241,-319 325,-594 84,-276 126,-653 126,-1130 0,-476 -42,-841 -126,-1096 -84,-256 -201,-454 -352,-597 -151,-142 -342,-240 -574,-290 -172,-39 -512,-59 -1018,-59l-557 0z"/>
   <path class="fil18 str2" d="M53443 28510c441,442 2501,3344 2506,3347"/>
   <ellipse class="fil19 str3" cx="44118" cy="34417" rx="370" ry="336"/>
   <ellipse class="fil19 str3" cx="46069" cy="33946" rx="370" ry="336"/>
   <ellipse class="fil19 str3" cx="45295" cy="34787" rx="370" ry="336"/>
   <ellipse class="fil19 str3" cx="48895" cy="38521" rx="370" ry="336"/>
   <ellipse class="fil19 str3" cx="50509" cy="39060" rx="370" ry="336"/>
   <ellipse class="fil19 str3" cx="58347" cy="37311" rx="370" ry="336"/>
   <ellipse class="fil19 str3" cx="58583" cy="35864" rx="370" ry="336"/>
   <ellipse class="fil19 str3" cx="59693" cy="38488" rx="370" ry="336"/>
   <ellipse class="fil19 str3" cx="63192" cy="35427" rx="370" ry="336"/>
   <polyline class="fil18 str4" points="39881,38561 39208,39099 38401,39268 38031,38830 38434,38191 39309,37922 39881,38561 40856,38897 42740,39436 43917,39537 45364,39200 47012,38023 46339,39537 45869,40277 45599,41151 44657,41589 44187,41219 44388,40613 45027,40512 45730,40728 45644,41007 "/>
   <ellipse class="fil19 str3" cx="44911" cy="41071" rx="580" ry="336"/>
   <ellipse class="fil19 str3" transform="matrix(3.54249 -1.43585 0.915621 2.259 38911.2 38623.5)" rx="185" ry="168"/>
   <polyline class="fil18 str5" points="49972,41361 48795,41799 45397,41731 44085,42471 43884,43279 43614,43952 42168,45230 41932,45835 41596,46844 "/>
   <polyline class="fil18 str4" points="43749,43615 43614,43952 43925,43733 44245,43792 44245,44095 44220,44549 43404,45600 "/>
   <polyline class="fil18 str4" points="47264,41866 46878,42304 46777,42724 46945,43279 47029,43817 46995,44440 46760,44776 46474,45230 "/>
   <polyline class="fil18 str4" points="44085,42471 43009,42489 42353,42808 41798,43178 40755,43649 40015,43784 39191,44003 38720,43952 "/>
   <polyline class="fil18 str4" points="43009,42489 40537,42220 39679,42270 38905,42321 38300,42119 "/>
   <polyline class="fil18 str4" points="40436,42226 39914,41597 38636,41177 37930,40958 "/>
   <polyline class="fil18 str4" points="45397,41731 43918,41446 43009,40706 42101,40336 39746,39966 38905,40033 "/>
   <line class="fil18 str4" x1="43009" y1="40706" x2="42370" y2= "39730" />
   <polyline class="fil18 str6" points="49972,41361 51505,40185 53516,38654 "/>
   <polyline class="fil18 str7" points="41120,39535 41036,39729 40980,40088 "/>
   <path class="fil18 str8" d="M40452 39371c96,211 118,19 142,376 7,96 190,253 171,379"/>
   <path class="fil18 str8" d="M40141 39985c0,-84 -55,-592 -94,-640 -6,-8 -16,-31 -16,-41"/>
   <path class="fil18 str8" d="M39174 39439c357,0 166,213 359,463 7,9 6,3 11,16"/>
   <path class="fil18 str8" d="M39174 39884c-222,0 -287,-199 -494,-193 -29,1 -6,-4 -36,-17"/>
   <path class="fil18 str8" d="M38989 40078c-351,0 -491,-6 -825,67"/>
   <path class="fil18 str8" d="M39326 40000c8,66 -73,373 -147,437 -6,5 -6,12 -5,19"/>
   <path class="fil18 str8" d="M39931 40078c-43,87 -68,259 -68,361"/>
   <path class="fil18 str8" d="M40528 40162c119,151 204,443 134,622"/>
   <path class="fil18 str8" d="M41285 40296c-29,16 -147,165 -143,219"/>
   <path class="fil18 str3" d="M49972 41361l530 214c811,335 1022,-562 1856,1480 230,564 2781,1395 3459,1514"/>
   <path class="fil18 str3" d="M53582 43842c577,-1383 2342,-647 3409,-1017 34,-11 743,-96 844,-106"/>
   <path class="fil18 str9" d="M54487 44187c-370,2178 220,1423 220,2468"/>
   <path class="fil18 str3" d="M56189 42944c-51,-537 566,-1371 1178,-1470 58,-9 388,-293 401,-370"/>
   <ellipse class="fil19 str3" cx="57768" cy="41104" rx="370" ry="336"/>
   <ellipse class="fil19 str3" cx="57835" cy="42719" rx="370" ry="336"/>
   <path class="fil18 str10" d="M46861 43002c403,146 530,534 782,540 30,1 31,16 34,35"/>
   <path class="fil18 str10" d="M47029 43817c6,174 522,468 732,450"/>
   <path class="fil18 str10" d="M46878 44608c552,174 641,442 1102,600"/>
   <path class="fil18 str10" d="M46617 45003c170,177 403,722 505,979"/>
   <path class="fil18 str10" d="M46474 45230c103,302 -526,655 -563,870"/>
   <path class="fil18 str10" d="M46617 45003c-153,-277 -261,-242 -667,-298 -40,-5 -111,-1 -157,-1"/>
   <path class="fil18 str10" d="M47002 43645c-198,93 6,274 -502,504"/>
   <path class="fil18 str10" d="M46861 43002c-311,321 -554,287 -597,323"/>
   <path class="fil18 str10" d="M44245 44095c371,57 607,-176 1128,-96l33 -2"/>
   <path class="fil18 str10" d="M44220 44549c73,150 542,661 715,693"/>
   <path class="fil18 str10" d="M43909 45309c196,177 474,545 791,589"/>
   <path class="fil18 str7" d="M54405 44742c-307,-67 -620,542 -942,635"/>
   <path class="fil18 str7" d="M53825 45234c95,32 239,168 322,249"/>
   <path class="fil18 str7" d="M54405 45697c-774,239 -354,227 -580,454"/>
   <path class="fil18 str7" d="M54548 46117c-81,-2 -189,153 -193,272 -3,132 -48,231 -152,308"/>
   <path class="fil18 str7" d="M54693 46411c336,3 255,249 454,396 33,24 38,25 74,25"/>
   <path class="fil18 str7" d="M54536 45421c-70,-74 122,-6 182,139 23,55 75,86 133,86"/>
   <path class="fil18 str7" d="M54531 44982c244,-71 441,6 631,-101"/>
   <path class="fil18 str7" d="M55044 44418c-255,103 -232,762 -235,766"/>
   <path class="fil18 str7" d="M55574 44671c-4,114 -126,334 -126,588"/>
   <path class="fil18 str5" d="M51614 31535c102,-337 523,-422 843,-796 229,-268 343,-1249 343,-1610"/>
   <path class="fil18 str5" d="M53986 31602c115,-850 -1232,234 -1257,-1719"/>
   <ellipse class="fil20 str11" cx="52797" cy="31226" rx="652" ry="336"/>
   <path class="fil21 str12" d="M43266 2236c-35,664 842,2086 1577,2619 592,439 2418,1055 3259,617 -901,-617 -2785,-1292 -2441,-1873 331,-557 1920,925 2832,1209 -284,-972 -1137,-1920 -1813,-2311 -842,-486 -2383,-711 -3414,-261l0 0z"/>
   <path class="fil22 str12" d="M42306 5507c273,605 1707,1482 2596,1624 723,119 2631,-166 3188,-924 -1090,-142 -3081,106 -3034,-569 48,-652 2134,-48 3082,-202 -699,-746 -1885,-1197 -2667,-1244 -972,-48 -2442,450 -3165,1315l0 0z"/>
   <path class="fil22 str13" d="M46739 19c-438,486 -652,2158 -415,3023 178,723 1221,2347 2146,2537 -308,-1055 -1351,-2762 -723,-2999 616,-226 912,1932 1434,2726 403,-937 332,-2205 47,-2940 -343,-901 -1398,-2050 -2489,-2347l0 0z"/>
   <ellipse class="fil23 str14" cx="61475" cy="43124" rx="143" ry="130"/>
   <ellipse class="fil23 str14" cx="65798" cy="42523" rx="143" ry="130"/>
   <ellipse class="fil23 str14" cx="55269" cy="45572" rx="143" ry="130"/>
   <ellipse class="fil23 str14" cx="42991" cy="45462" rx="143" ry="130"/>
   <ellipse class="fil23 str14" cx="38929" cy="41665" rx="143" ry="130"/>
   <ellipse class="fil23 str14" cx="41612" cy="39550" rx="143" ry="130"/>
   <ellipse class="fil23 str14" cx="43639" cy="44693" rx="143" ry="130"/>
   <path class="fil18 str5" d="M60827 37319c314,1546 135,1599 802,3064 399,879 -3459,796 -4115,1747"/>
   <path class="fil18 str15" d="M60108 41200c-131,206 -657,360 -989,792 -413,539 -635,1372 -708,1655"/>
   <path class="fil18 str4" d="M59784 44316c39,-67 919,-937 1280,-1729 323,-708 133,-1351 133,-1357 -38,-738 281,340 682,863 594,776 -754,1057 1614,3425 184,184 1236,233 1472,177"/>
   <path class="fil18 str4" d="M61629 40383c928,-518 2629,-933 2629,637 0,1109 726,1280 1559,1996l90 56"/>
   <path class="fil18 str15" d="M64222 40657c229,958 1622,1628 2577,1607 278,-6 576,0 857,0"/>
   <path class="fil18 str8" d="M62077 43528c634,-29 775,206 1241,130"/>
   <path class="fil18 str8" d="M62443 43995c77,1 392,319 1123,319l55 0"/>
   <path class="fil18 str8" d="M62573 44469c-140,91 -194,354 -560,577 -84,51 -91,88 -91,177"/>
   <path class="fil18 str8" d="M62998 45139c-437,135 -166,235 -908,235"/>
   <path class="fil18 str8" d="M63269 45289c-184,217 -801,667 -759,892"/>
   <path class="fil18 str8" d="M63772 45727c-17,166 -67,221 -67,387"/>
   <path class="fil18 str8" d="M63604 45290c274,0 338,-37 589,-101"/>
   <path class="fil18 str8" d="M64613 45626c20,-157 170,-165 185,-252"/>
  </g>
 </g>
</svg>
