<?xml version="1.0" encoding="UTF-8"?>
<!DOCTYPE svg PUBLIC "-//W3C//DTD SVG 1.1//EN" "http://www.w3.org/Graphics/SVG/1.1/DTD/svg11.dtd">
<!-- Creator: CorelDRAW X7 -->
<svg xmlns="http://www.w3.org/2000/svg" xml:space="preserve" width="74.151mm" height="46.1545mm" version="1.1" style="shape-rendering:geometricPrecision; text-rendering:geometricPrecision; image-rendering:optimizeQuality; fill-rule:evenodd; clip-rule:evenodd"
viewBox="0 0 2318 1443"
 xmlns:xlink="http://www.w3.org/1999/xlink">
 <defs>
  <style type="text/css">
   <![CDATA[
    .str2 {stroke:#201E1E;stroke-width:31.2596}
    .str6 {stroke:#201E1E;stroke-width:23.4447}
    .str5 {stroke:#201E1E;stroke-width:15.6298}
    .str15 {stroke:#373435;stroke-width:7.8149}
    .str4 {stroke:#201E1E;stroke-width:7.8149}
    .str1 {stroke:#A9ABAE;stroke-width:6.25192}
    .str14 {stroke:#848688;stroke-width:6.25192}
    .str9 {stroke:#4B4B4D;stroke-width:6.25192}
    .str3 {stroke:#373435;stroke-width:6.25192}
    .str11 {stroke:#201E1E;stroke-width:6.25192}
    .str0 {stroke:#FEFEFE;stroke-width:2.3726}
    .str8 {stroke:#96989A;stroke-width:2.38198}
    .str7 {stroke:#727376;stroke-width:2.38198}
    .str10 {stroke:#373435;stroke-width:2.38198}
    .str12 {stroke:black;stroke-width:2.38198}
    .str13 {stroke:#201E1E;stroke-width:2.38198}
    .fil18 {fill:none}
    .fil23 {fill:#848688}
    .fil4 {fill:#727376}
    .fil19 {fill:#373435}
    .fil20 {fill:#201E1E}
    .fil0 {fill:#010101}
    .fil1 {fill:#1A1A1A}
    .fil22 {fill:#F06277}
    .fil21 {fill:#F48884}
    .fil2 {fill:#F4F4F4}
    .fil3 {fill:#FEFEFE}
    .fil14 {fill:#373435;fill-rule:nonzero}
    .fil17 {fill:#FFFBD6;fill-rule:nonzero}
    .fil9 {fill:#FFF212;fill-rule:nonzero}
    .fil10 {fill:#F7ADAF;fill-rule:nonzero}
    .fil13 {fill:#CE8F64;fill-rule:nonzero}
    .fil11 {fill:#FAA954;fill-rule:nonzero}
    .fil5 {fill:#ED3237;fill-rule:nonzero}
    .fil16 {fill:#8B9E93;fill-rule:nonzero}
    .fil12 {fill:#C75EA3;fill-rule:nonzero}
    .fil6 {fill:#91D8F7;fill-rule:nonzero}
    .fil15 {fill:#A8CF45;fill-rule:nonzero}
    .fil7 {fill:#00A859;fill-rule:nonzero}
    .fil8 {fill:#3E4095;fill-rule:nonzero}
   ]]>
  </style>
 </defs>
 <g id="Capa_x0020_1">
  <metadata id="CorelCorpID_0Corel-Layer"/>
  <g id="_2173308163104">
   <path class="fil0" d="M1412 379c30,-5 52,-7 78,7 18,9 37,29 44,50 -9,-4 -21,-12 -31,-17 -11,-7 -21,-16 -34,-11 -10,18 3,21 18,29 6,4 31,16 33,21 -56,5 -103,-32 -108,-79l0 0zm389 3c2,-5 27,-17 33,-21 15,-9 29,-11 21,-31 -22,-5 -42,20 -68,29 27,-65 101,-71 125,-56 -11,53 -54,83 -111,79l0 0zm-88 -124c21,-16 49,-19 40,-36 -9,-17 -41,11 -53,15 19,-42 56,-43 92,-39 -7,33 -37,66 -79,60zm-396 -199c34,-15 85,-8 113,8 22,13 50,45 60,77 -30,-10 -83,-59 -94,-40 -11,19 51,41 81,62 -28,14 -88,-6 -108,-21 -24,-17 -53,-64 -52,-86l0 0zm324 455c-9,-7 -15,-20 -24,-28 -51,-43 -42,-13 -57,-52 -15,-38 -38,-70 -84,-80 -25,-6 -74,-4 -90,12 -5,24 22,69 33,81 18,19 41,33 77,36 43,3 51,-18 90,9 156,112 -341,91 -287,91 368,-18 273,10 435,-153 49,-50 35,-18 95,-24 20,-2 38,-8 52,-16 25,-16 44,-42 54,-78 8,-28 3,-29 -23,-35 -56,-13 -108,5 -137,53 -10,17 -12,29 -19,46 -3,6 -50,38 -78,88 -5,7 -8,16 -13,22 -3,-41 -6,-76 -14,-115 -11,-50 -25,-53 19,-87 13,-10 29,1 54,0 74,-4 102,-83 94,-99 -7,-13 -111,-47 -149,65 -4,12 -12,13 -21,21 -8,7 -11,13 -20,21l-2 -3c-2,-3 0,0 -2,-4 -22,-41 -37,-66 -71,-99 -17,-16 -28,-12 -34,-33 -27,-95 -102,-147 -209,-118 -16,4 -23,5 -19,25 6,24 15,47 27,65 68,107 174,56 193,61 14,4 42,34 50,43 51,58 85,183 80,285l0 0z"/>
   <path class="fil0" d="M1553 977c-19,-4 -44,7 -57,22 -9,33 72,-5 101,-5 -29,28 -63,17 -94,40 -44,33 -18,38 -57,45 -66,12 -91,74 -75,86 29,20 18,-45 77,-56 -5,16 -20,52 -20,69 1,13 13,22 24,12 7,-6 8,-24 11,-34 12,-44 34,-94 72,-106 -2,38 4,72 26,101 7,10 20,14 26,3 7,-13 -11,-31 -17,-48 -7,-20 -10,-44 -2,-63 18,-9 29,-11 45,-23 17,-13 15,-26 26,-44 4,9 4,23 6,34 3,20 4,14 14,25 30,30 2,55 -26,68 -9,5 -20,8 -16,21 6,25 40,-1 50,-5 5,37 -70,79 -60,99 6,10 59,-23 66,-33 14,-17 27,-45 23,-69 -4,-26 -10,-8 2,-32 14,-30 -4,-53 -18,-68 -9,-10 -8,-19 -10,-37 -2,-13 -6,-29 -3,-42 7,2 10,13 15,19 7,11 11,11 11,25 -5,62 46,58 54,97 5,30 -18,53 -8,65 18,22 30,-12 34,-28 8,-30 4,-42 -6,-67 13,1 28,6 39,10 14,6 12,16 18,29 6,11 13,21 19,29 17,21 7,4 9,33 1,19 15,61 34,59 28,-2 -2,-45 -7,-59 11,3 58,39 68,14 9,-22 -36,-27 -60,-45 -10,-7 -27,-25 -33,-37 19,1 31,-1 46,-8 61,-28 28,-49 13,-42 -13,7 -19,15 -37,19 -23,5 -53,-19 -78,-26 -16,-4 -30,-6 -48,-3 -18,2 -23,-8 -28,-26 14,4 47,15 53,-5 8,-26 -29,-11 -44,-25 4,-8 17,-24 23,-32 33,-31 -41,7 -47,11 -5,-9 -11,-18 -16,-28 -35,-23 141,14 -71,22 -21,0 -37,40 -67,39z"/>
   <path class="fil1" d="M436 457c28,-78 40,-73 11,-179 73,28 135,123 73,168 -22,17 -50,11 -84,11zm-89 0c11,-33 28,-45 28,-90 5,-44 -6,-61 -17,-95l22 0c28,45 28,107 6,157 -11,23 -11,28 -39,28l0 0zm72 -101c0,-39 -11,-56 -16,-84 22,0 22,6 33,28 6,17 6,34 6,56 6,45 -11,68 -28,101l-23 0c12,-39 28,-50 28,-101l0 0zm-89 90c-12,17 -12,11 -40,11 -67,0 -56,6 -78,28 -11,11 -28,11 -39,11 0,23 0,17 22,17 34,0 79,6 95,-5 12,-12 34,-28 40,-34 11,0 56,0 67,0 -6,6 -11,17 -17,17 -22,11 -22,-6 -33,11 5,11 0,11 16,11l79 0c34,0 45,-28 67,-33 17,5 23,22 39,28 23,11 169,11 191,5 6,-50 -101,-39 -140,-45 -17,-5 -23,-11 -34,-16 -22,-34 23,-34 -17,-113 -22,-33 -56,-67 -101,-78 -67,-23 -100,-6 -151,17l0 22 39 -17c28,28 34,107 -5,163l0 0z"/>
   <path class="fil1" d="M262 311c-22,-11 -11,-28 6,-45 17,17 6,34 -6,45zm-84 0c-22,-11 -17,-22 -11,-45 22,12 28,28 11,45zm96 17c22,-34 28,-39 0,-84 -17,6 -28,17 -34,34 -17,22 -6,33 6,45 -17,33 -23,50 -23,95 0,17 6,22 -11,22 -6,-61 11,-61 -23,-117 29,-34 6,-62 -22,-79l-17 17c0,5 -5,17 -5,22 0,34 16,34 16,45 0,34 -16,23 23,101 11,11 11,28 34,28 22,6 22,-11 33,-28 17,-34 34,-56 23,-101l0 0z"/>
   <path class="fil2" d="M358 272c11,34 22,51 17,95 0,45 -17,57 -28,90 28,0 28,-5 39,-28 22,-50 22,-112 -6,-157l-22 0 0 0z"/>
   <path class="fil2" d="M419 356c0,51 -16,62 -28,101l23 0c17,-33 33,-56 28,-101 0,-22 0,-39 -6,-56 -11,-22 -11,-28 -33,-28 5,28 16,45 16,84l0 0z"/>
   <path class="fil3 str0" d="M184 373c0,0 5,0 5,6 0,5 -5,5 -5,5 -6,0 -11,0 -11,-5 0,-6 5,-6 11,-6z"/>
   <path class="fil3 str0" d="M257 373c5,0 5,0 5,6 0,5 0,5 -5,5 -6,0 -6,0 -6,-5 0,-6 0,-6 6,-6z"/>
   <rect class="fil4 str1" x="3" y="538" width="2312" height="422"/>
   <path class="fil5" d="M159 644l76 0c15,0 26,0 33,1 8,2 14,4 20,8 6,4 11,9 15,16 3,7 5,14 5,22 0,9 -2,17 -7,25 -4,7 -11,12 -19,16 11,4 20,9 26,17 7,9 10,18 10,29 0,9 -2,17 -6,25 -4,8 -10,15 -17,20 -7,5 -15,8 -25,9 -7,0 -22,1 -47,1l-64 0 0 -189zm38 31l0 44 25 0c15,0 24,0 28,-1 7,-1 12,-3 16,-7 3,-3 5,-8 5,-14 0,-6 -2,-11 -5,-15 -3,-3 -8,-5 -14,-6 -4,-1 -15,-1 -33,-1l-22 0zm0 75l0 51 36 0c14,0 22,0 26,-1 6,-1 10,-4 14,-8 3,-4 5,-9 5,-16 0,-6 -1,-10 -4,-14 -3,-4 -7,-7 -12,-9 -5,-2 -16,-3 -34,-3l-31 0z"/>
   <polygon id="1" class="fil6" points="349,833 349,644 387,644 387,833 "/>
   <path id="2" class="fil7" d="M416 739c0,-19 3,-35 8,-48 5,-10 11,-19 18,-26 7,-8 16,-14 24,-17 12,-5 26,-8 41,-8 28,0 51,9 67,26 17,18 26,42 26,73 0,30 -9,54 -25,72 -17,17 -39,26 -67,26 -28,0 -51,-9 -67,-26 -17,-18 -25,-41 -25,-72zm39 -1c0,22 5,38 15,49 10,11 23,17 38,17 15,0 28,-6 37,-17 10,-11 15,-27 15,-49 0,-22 -5,-38 -14,-49 -10,-11 -22,-16 -38,-16 -16,0 -29,5 -38,16 -10,11 -15,27 -15,49z"/>
   <path id="3" class="fil8" d="M629 644l70 0c16,0 28,1 36,3 11,3 21,9 29,18 8,8 14,18 18,30 4,12 6,27 6,45 0,16 -2,29 -6,40 -5,14 -11,25 -20,34 -7,6 -16,11 -27,15 -8,3 -20,4 -34,4l-72 0 0 -189zm39 32l0 125 28 0c11,0 19,-1 23,-2 7,-1 12,-4 16,-8 4,-3 7,-9 10,-18 2,-8 4,-20 4,-35 0,-14 -2,-25 -4,-33 -3,-8 -7,-14 -11,-19 -5,-4 -11,-7 -18,-9 -5,-1 -16,-1 -31,-1l-17 0z"/>
   <polygon id="4" class="fil9" points="819,833 819,644 858,644 858,833 "/>
   <polygon id="5" class="fil10" points="943,833 875,644 916,644 964,784 1011,644 1051,644 984,833 "/>
   <polygon id="6" class="fil11" points="1071,833 1071,644 1211,644 1211,676 1109,676 1109,718 1204,718 1204,750 1109,750 1109,801 1215,801 1215,833 "/>
   <path id="7" class="fil12" d="M1247 833l0 -189 81 0c20,0 35,1 44,5 9,3 16,9 22,18 5,9 8,19 8,30 0,14 -4,26 -12,35 -9,9 -21,15 -38,17 9,5 15,11 21,16 5,6 12,16 21,31l24 37 -46 0 -28 -41c-9,-15 -16,-24 -20,-28 -3,-4 -7,-7 -11,-8 -4,-1 -11,-2 -20,-2l-7 0 0 79 -39 0zm39 -109l28 0c18,0 30,-1 34,-3 5,-1 8,-4 11,-8 3,-3 4,-8 4,-14 0,-6 -2,-11 -5,-15 -4,-4 -9,-7 -15,-8 -3,0 -12,0 -28,0l-29 0 0 48z"/>
   <path id="8" class="fil13" d="M1428 772l38 -4c2,12 6,22 13,27 7,6 16,9 28,9 12,0 21,-2 28,-8 6,-5 9,-11 9,-18 0,-4 -1,-8 -4,-11 -3,-3 -7,-6 -14,-8 -4,-2 -14,-5 -30,-9 -21,-5 -35,-11 -43,-19 -12,-10 -18,-23 -18,-38 0,-9 3,-19 9,-27 5,-8 13,-15 23,-19 10,-5 23,-7 37,-7 24,0 42,5 54,16 12,10 18,25 19,42l-39 1c-1,-9 -5,-16 -10,-21 -5,-4 -13,-6 -24,-6 -11,0 -20,2 -26,7 -4,3 -6,7 -6,12 0,4 2,8 6,11 4,4 16,8 35,13 18,4 32,9 41,14 9,4 16,11 21,19 5,8 7,18 7,30 0,11 -3,21 -9,30 -6,10 -14,17 -25,22 -11,4 -25,7 -42,7 -24,0 -42,-6 -55,-17 -13,-11 -20,-27 -23,-48z"/>
   <polygon id="9" class="fil14" points="1614,833 1614,644 1652,644 1652,833 "/>
   <path id="10" class="fil15" d="M1688 644l70 0c16,0 28,1 36,3 11,3 21,9 29,18 8,8 14,18 18,30 4,12 6,27 6,45 0,16 -2,29 -6,40 -5,14 -11,25 -20,34 -7,6 -16,11 -27,15 -8,3 -20,4 -34,4l-72 0 0 -189zm39 32l0 125 28 0c11,0 18,-1 23,-2 6,-1 12,-4 16,-8 4,-3 7,-9 10,-18 2,-8 3,-20 3,-35 0,-14 -1,-25 -3,-33 -3,-8 -7,-14 -11,-19 -5,-4 -11,-7 -18,-9 -5,-1 -16,-1 -31,-1l-17 0z"/>
   <path id="11" class="fil16" d="M2050 833l-41 0 -16 -43 -76 0 -16 43 -41 0 74 -189 40 0 76 189zm-70 -75l-26 -70 -26 70 52 0z"/>
   <path id="12" class="fil17" d="M2071 644l69 0c16,0 28,1 36,3 11,3 21,9 29,18 8,8 14,18 18,30 4,12 6,27 6,45 0,16 -2,29 -6,40 -4,14 -11,25 -20,34 -7,6 -15,11 -27,15 -8,3 -19,4 -34,4l-71 0 0 -189zm38 32l0 125 28 0c11,0 19,-1 23,-2 7,-1 12,-4 16,-8 4,-3 7,-9 10,-18 2,-8 4,-20 4,-35 0,-14 -2,-25 -4,-33 -3,-8 -6,-14 -11,-19 -5,-4 -10,-7 -18,-9 -5,-1 -15,-1 -31,-1l-17 0z"/>
   <path class="fil18 str2" d="M1644 877c14,13 77,103 77,103"/>
   <ellipse class="fil19 str3" cx="1357" cy="1058" rx="11" ry="10"/>
   <ellipse class="fil19 str3" cx="1417" cy="1044" rx="11" ry="10"/>
   <ellipse class="fil19 str3" cx="1394" cy="1070" rx="11" ry="10"/>
   <ellipse class="fil19 str3" cx="1504" cy="1184" rx="11" ry="10"/>
   <ellipse class="fil19 str3" cx="1554" cy="1201" rx="11" ry="10"/>
   <ellipse class="fil19 str3" cx="1795" cy="1147" rx="11" ry="10"/>
   <ellipse class="fil19 str3" cx="1802" cy="1103" rx="11" ry="10"/>
   <ellipse class="fil19 str3" cx="1836" cy="1183" rx="11" ry="10"/>
   <ellipse class="fil19 str3" cx="1944" cy="1089" rx="11" ry="10"/>
   <polyline class="fil18 str4" points="1227,1186 1207,1202 1182,1207 1170,1194 1183,1174 1210,1166 1227,1186 1257,1196 1315,1213 1351,1216 1396,1205 1446,1169 1426,1216 1411,1238 1403,1265 1374,1279 1360,1267 1366,1249 1385,1246 1407,1252 1404,1261 "/>
   <ellipse class="fil19 str3" cx="1382" cy="1263" rx="18" ry="10"/>
   <ellipse class="fil19 str3" transform="matrix(1.77192 -0.718197 0.457984 1.12993 1197.45 1187.64)" rx="11" ry="10"/>
   <polyline class="fil18 str5" points="1537,1272 1501,1285 1397,1283 1356,1306 1350,1331 1342,1351 1298,1391 1290,1409 1280,1440 "/>
   <polyline class="fil18 str4" points="1346,1341 1342,1351 1352,1345 1361,1346 1361,1356 1361,1370 1336,1402 "/>
   <polyline class="fil18 str4" points="1454,1287 1442,1301 1439,1314 1444,1331 1447,1347 1446,1366 1439,1377 1430,1391 "/>
   <polyline class="fil18 str4" points="1356,1306 1323,1306 1303,1316 1286,1328 1254,1342 1231,1346 1206,1353 1192,1351 "/>
   <polyline class="fil18 str4" points="1323,1306 1247,1298 1221,1300 1197,1301 1179,1295 "/>
   <polyline class="fil18 str4" points="1244,1298 1228,1279 1189,1266 1167,1259 "/>
   <polyline class="fil18 str4" points="1397,1283 1351,1274 1323,1252 1295,1240 1223,1229 1197,1231 "/>
   <line class="fil18 str4" x1="1323" y1="1252" x2="1304" y2= "1222" />
   <polyline class="fil18 str6" points="1537,1272 1585,1236 1646,1189 "/>
   <polyline class="fil18 str7" points="1265,1216 1263,1222 1261,1233 "/>
   <path class="fil18 str8" d="M1245 1211c3,6 3,0 4,11 0,3 6,8 5,12"/>
   <path class="fil18 str8" d="M1235 1229c0,-2 -1,-18 -3,-19 0,0 0,-1 0,-1"/>
   <path class="fil18 str8" d="M1206 1213c10,0 5,6 11,14 0,0 0,0 0,0"/>
   <path class="fil18 str8" d="M1206 1226c-7,0 -9,-6 -16,-6 -1,0 0,0 -1,0"/>
   <path class="fil18 str8" d="M1200 1232c-11,0 -15,0 -26,2"/>
   <path class="fil18 str8" d="M1210 1230c0,2 -2,11 -4,13 -1,1 -1,1 0,1"/>
   <path class="fil18 str8" d="M1229 1232c-2,3 -2,8 -2,11"/>
   <path class="fil18 str8" d="M1247 1235c4,5 6,14 4,19"/>
   <path class="fil18 str8" d="M1270 1239c0,1 -4,5 -4,7"/>
   <path class="fil18 str3" d="M1537 1272l17 6c25,11 31,-17 57,46 7,17 85,43 106,46"/>
   <path class="fil18 str3" d="M1648 1348c18,-42 72,-20 105,-31 1,-1 23,-3 26,-3"/>
   <path class="fil18 str9" d="M1676 1359c-11,67 7,43 7,75"/>
   <path class="fil18 str3" d="M1728 1320c-1,-16 18,-42 37,-45 1,0 12,-9 12,-11"/>
   <ellipse class="fil19 str3" cx="1777" cy="1264" rx="11" ry="10"/>
   <ellipse class="fil19 str3" cx="1779" cy="1314" rx="11" ry="10"/>
   <path class="fil18 str10" d="M1442 1322c12,5 16,17 24,17 1,0 1,0 1,1"/>
   <path class="fil18 str10" d="M1447 1347c0,6 16,15 22,14"/>
   <path class="fil18 str10" d="M1442 1372c17,5 20,13 34,18"/>
   <path class="fil18 str10" d="M1434 1384c5,5 13,22 16,30"/>
   <path class="fil18 str10" d="M1430 1391c3,9 -16,20 -17,26"/>
   <path class="fil18 str10" d="M1434 1384c-4,-9 -8,-8 -20,-9 -1,-1 -4,0 -5,0"/>
   <path class="fil18 str10" d="M1446 1342c-6,3 0,8 -15,15"/>
   <path class="fil18 str10" d="M1442 1322c-10,10 -17,9 -19,10"/>
   <path class="fil18 str10" d="M1361 1356c12,2 19,-6 35,-3l1 0"/>
   <path class="fil18 str10" d="M1361 1370c2,4 16,20 22,21"/>
   <path class="fil18 str10" d="M1351 1393c6,6 15,17 24,18"/>
   <path class="fil18 str7" d="M1674 1376c-10,-2 -19,16 -29,19"/>
   <path class="fil18 str7" d="M1656 1391c3,1 7,5 10,7"/>
   <path class="fil18 str7" d="M1674 1405c-24,7 -11,7 -18,14"/>
   <path class="fil18 str7" d="M1678 1418c-2,0 -6,5 -6,8 0,4 -1,7 -5,10"/>
   <path class="fil18 str7" d="M1682 1427c11,0 8,8 14,12 1,1 2,1 3,1"/>
   <path class="fil18 str7" d="M1678 1397c-3,-3 3,-1 5,4 1,2 3,2 4,2"/>
   <path class="fil18 str7" d="M1678 1383c7,-2 13,0 19,-3"/>
   <path class="fil18 str7" d="M1693 1366c-8,3 -7,23 -7,23"/>
   <path class="fil18 str7" d="M1710 1373c-1,4 -4,11 -4,19"/>
   <path class="fil18 str5" d="M1588 970c3,-11 16,-13 26,-25 7,-8 10,-38 10,-49"/>
   <path class="fil18 str5" d="M1661 972c3,-26 -38,7 -39,-53"/>
   <ellipse class="fil20 str11" cx="1624" cy="960" rx="20" ry="10"/>
   <path class="fil21 str12" d="M1331 69c-1,21 26,64 49,81 18,13 74,32 100,19 -28,-19 -86,-40 -75,-58 10,-17 59,29 87,37 -9,-30 -35,-59 -56,-71 -26,-15 -73,-22 -105,-8l0 0z"/>
   <path class="fil22 str12" d="M1302 170c8,18 52,45 80,50 22,3 80,-5 98,-29 -34,-4 -95,4 -94,-17 2,-20 66,-2 95,-6 -21,-23 -58,-37 -82,-39 -30,-1 -75,14 -97,41l0 0z"/>
   <path class="fil22 str13" d="M1438 1c-13,15 -20,66 -13,93 6,22 38,72 66,78 -9,-32 -41,-85 -22,-92 19,-7 28,59 44,84 12,-29 10,-68 2,-91 -11,-27 -43,-63 -77,-72l0 0z"/>
   <circle class="fil23 str14" cx="1891" cy="1326" r="4"/>
   <circle class="fil23 str14" cx="2024" cy="1307" r="4"/>
   <circle class="fil23 str14" cx="1700" cy="1401" r="4"/>
   <circle class="fil23 str14" cx="1323" cy="1398" r="4"/>
   <circle class="fil23 str14" cx="1198" cy="1281" r="4"/>
   <circle class="fil23 str14" cx="1280" cy="1216" r="4"/>
   <circle class="fil23 str14" cx="1343" cy="1374" r="4"/>
   <path class="fil18 str5" d="M1871 1148c10,47 4,49 25,94 12,27 -107,24 -127,53"/>
   <path class="fil18 str15" d="M1849 1267c-4,6 -20,11 -30,24 -13,17 -20,42 -22,51"/>
   <path class="fil18 str4" d="M1839 1363c1,-2 28,-29 39,-54 10,-21 4,-41 4,-41 -1,-23 9,10 21,26 19,24 -23,33 50,106 6,5 38,7 45,5"/>
   <path class="fil18 str4" d="M1896 1242c28,-16 80,-29 80,19 0,34 23,40 48,62l3 1"/>
   <path class="fil18 str15" d="M1975 1250c7,30 50,50 80,50 8,-1 17,0 26,0"/>
   <path class="fil18 str8" d="M1909 1338c20,-1 24,7 39,4"/>
   <path class="fil18 str8" d="M1921 1353c2,0 12,10 34,10l2 0"/>
   <path class="fil18 str8" d="M1925 1367c-5,3 -6,11 -18,18 -2,2 -2,3 -2,5"/>
   <path class="fil18 str8" d="M1938 1388c-14,4 -5,7 -28,7"/>
   <path class="fil18 str8" d="M1946 1393c-6,6 -25,20 -23,27"/>
   <path class="fil18 str8" d="M1962 1406c-1,5 -3,7 -3,12"/>
   <path class="fil18 str8" d="M1956 1393c9,0 11,-2 18,-4"/>
   <path class="fil18 str8" d="M1987 1403c1,-5 6,-5 6,-8"/>
  </g>
 </g>
</svg>
