<?xml version="1.0" encoding="UTF-8"?>
<!DOCTYPE svg PUBLIC "-//W3C//DTD SVG 1.1//EN" "http://www.w3.org/Graphics/SVG/1.1/DTD/svg11.dtd">
<!-- Creator: CorelDRAW X7 -->
<svg xmlns="http://www.w3.org/2000/svg" xml:space="preserve" width="87.6659mm" height="40.1882mm" version="1.1" style="shape-rendering:geometricPrecision; text-rendering:geometricPrecision; image-rendering:optimizeQuality; fill-rule:evenodd; clip-rule:evenodd"
viewBox="0 0 14875 6819"
 xmlns:xlink="http://www.w3.org/1999/xlink">
 <defs>
  <style type="text/css">
   <![CDATA[
    .str1 {stroke:#373435;stroke-width:169.673}
    .str0 {stroke:#373435;stroke-width:33.9346}
    .fil3 {fill:none}
    .fil2 {fill:#FEFEFE}
    .fil0 {fill:#1A1A1A}
    .fil1 {fill:#F4F4F4}
   ]]>
  </style>
 </defs>
 <g id="Capa_x0020_1">
  <metadata id="CorelCorpID_0Corel-Layer"/>
  <g id="_2585314729104">
   <path class="fil0" d="M7329 5350c621,-2027 988,-1804 251,-4475 1847,653 3413,3074 1893,4190 -557,408 -1374,279 -2144,285zm-2277 -9c308,-797 695,-1082 756,-2255 56,-1074 -192,-1493 -487,-2338l564 -72c717,1091 696,2756 146,3959 -256,561 -252,733 -979,706zm1846 -2562c0,-973 -227,-1349 -481,-2117 665,-20 678,203 860,757 138,423 227,885 237,1358 23,1185 -354,1718 -705,2565l-608 7c303,-984 697,-1220 697,-2570zm-2217 2243c-289,431 -340,328 -974,321 -1712,-18 -1431,179 -2008,734 -293,282 -660,196 -1017,312 -1,457 66,407 563,404 840,-4 1951,103 2460,-217 300,-188 865,-708 984,-750 245,-88 1380,-53 1673,-1 -177,123 -247,329 -521,433 -504,193 -487,-144 -751,241 79,320 16,265 425,295l1915 -4c817,-31 1181,-715 1657,-949 416,166 569,582 984,784 580,283 4338,200 4793,100 204,-1257 -2506,-977 -3535,-1141 -340,-55 -559,-230 -726,-441 -570,-719 515,-726 -518,-2724 -460,-892 -1347,-1682 -2557,-2043 -1611,-480 -2465,-39 -3676,467l-3 547 964 -464c739,749 750,2778 -132,4096z"/>
   <path class="fil0" d="M3018 1685c-642,-299 -364,-768 38,-1107 417,341 175,850 -38,1107zm-2242 -14c-425,-236 -420,-548 -198,-1073 498,250 701,656 198,1073zm2424 395c602,-801 777,-879 61,-2066 -382,140 -755,464 -933,775 -324,566 -9,893 235,1212 -435,884 -620,1185 -582,2379 15,484 160,574 -252,606 -155,-1572 186,-1581 -588,-2985 705,-882 170,-1615 -602,-1974l-365 428c-94,185 -166,381 -173,602 -25,730 486,786 479,1077 -19,865 -464,554 557,2453 215,398 298,810 769,829 570,22 650,-361 859,-813 378,-818 916,-1421 535,-2523z"/>
   <path class="fil1" d="M5321 748c295,845 543,1264 487,2338 -61,1173 -448,1458 -756,2255 727,27 723,-145 979,-706 550,-1203 571,-2868 -146,-3959l-564 72z"/>
   <path class="fil1" d="M6898 2779c0,1350 -394,1586 -697,2570l608 -7c351,-847 728,-1380 705,-2565 -10,-473 -99,-935 -237,-1358 -182,-554 -195,-777 -860,-757 254,768 481,1144 481,2117z"/>
   <path class="fil2" d="M856 2932c139,0 251,135 251,302 0,166 -112,301 -251,301 -139,0 -251,-135 -251,-301 0,-167 112,-302 251,-302z"/>
   <path class="fil2" d="M2823 2932c139,0 252,135 252,302 0,166 -113,301 -252,301 -138,0 -251,-135 -251,-301 0,-167 113,-302 251,-302z"/>
   <polyline class="fil3 str0" points="7201,567 7633,1866 7788,3025 7494,4262 6984,5530 "/>
   <polyline class="fil3 str1" points="1343,1501 1747,1434 2269,1467 "/>
  </g>
 </g>
</svg>
